<?xml version="1.0" encoding="utf-8"?>
<!-- Generator: Adobe Illustrator 23.1.0, SVG Export Plug-In . SVG Version: 6.00 Build 0)  -->
<svg version="1.1" id="Layer_1" xmlns="http://www.w3.org/2000/svg" xmlns:xlink="http://www.w3.org/1999/xlink" x="0px" y="0px"
	 viewBox="0 0 64 64" style="enable-background:new 0 0 64 64;" xml:space="preserve">
<style type="text/css">
	.st0{fill:#ef3125;}
</style>
<g>
	<g id="Icon-Trash" transform="translate(232.000000, 228.000000)">
		<polygon id="Fill-6" class="st0" points="-210,-208.1 -206,-208.1 -206,-176 -210,-176 		"/>
		<polygon id="Fill-7" class="st0" points="-202,-208.1 -198,-208.1 -198,-176 -202,-176 		"/>
		<polygon id="Fill-8" class="st0" points="-194,-208.1 -190,-208.1 -190,-176 -194,-176 		"/>
		<polygon id="Fill-9" class="st0" points="-226.1,-220.1 -173.9,-220.1 -173.9,-216.1 -226.1,-216.1 		"/>
		<path id="Fill-10" class="st0" d="M-190.1-218.1h-3.7v-4c0-1.2-0.9-2.1-2.1-2.1h-8c-1.2,0-2.1,0.9-2.1,2.1v4h-3.7v-4
			c0-3.2,2.7-5.9,5.9-5.9h8c3.2,0,5.9,2.7,5.9,5.9L-190.1-218.1"/>
		<path id="Fill-11" class="st0" d="M-188-164H-212c-3.2,0-6-2.7-6.3-5.9L-222-218l4-0.3l3.7,48.1c0.1,1.2,1.2,2.1,2.3,2.1h24.1
			c1.2,0,2.3-1.1,2.3-2.1l3.7-48.1l4,0.3l-3.7,48.1C-182-166.5-184.8-164-188-164"/>
	</g>
</g>
</svg>
