<?xml version="1.0" encoding="utf-8"?>
<!-- Generator: Adobe Illustrator 23.1.0, SVG Export Plug-In . SVG Version: 6.00 Build 0)  -->
<svg version="1.1" id="Слой_1" xmlns:serif="http://www.serif.com/"
	 xmlns="http://www.w3.org/2000/svg" xmlns:xlink="http://www.w3.org/1999/xlink" x="0px" y="0px" viewBox="0 0 1500 1500"
	 style="enable-background:new 0 0 1500 1500;" xml:space="preserve">
<style type="text/css">
	.st0{display:none;fill:none;}
	.st1{fill:#FFFFFF;}
</style>
<g transform="matrix(1,0,0,1,-1216,-192)">
	<rect id="Icons" x="-27284" y="-4308" class="st0" width="30000" height="18750"/>
	<g id="Icons1" serif:id="Icons">
		<g id="Strike">
		</g>
		<g id="H1">
		</g>
		<g id="H2">
		</g>
		<g id="H3">
		</g>
		<g id="list-ul">
		</g>
		<g id="hamburger-1">
		</g>
		<g id="hamburger-2">
		</g>
		<g id="list-ol">
		</g>
		<g id="list-task">
		</g>
		<g id="trash">
		</g>
		<g id="vertical-menu">
		</g>
		<g id="horizontal-menu">
		</g>
		<g id="sidebar-2">
		</g>
		<g id="Pen">
		</g>
		<g id="Pen1" serif:id="Pen">
		</g>
		<g id="clock">
		</g>
		<g id="external-link">
		</g>
		<g id="hr">
		</g>
		<g id="info">
		</g>
		<g id="warning">
		</g>
		<g id="plus-circle">
		</g>
		<g id="minus-circle">
		</g>
		<g id="vue">
		</g>
		<g id="cog">
		</g>
		<g id="logo">
		</g>
		<g id="eye-slash">
		</g>
		<g id="eye">
		</g>
		<g id="toggle-off">
		</g>
		<g id="shredder">
		</g>
		<g id="spinner--loading--dots-" serif:id="spinner [loading, dots]">
		</g>
		<g id="react">
		</g>
		<g id="user" transform="matrix(1.03547,0,0,1.03547,1248,223.874)">
			<g transform="matrix(1,0,0,1,-50.4,-43.8)">
				<g transform="matrix(0.909091,0,0,0.909091,4.58182,1.86364)">
					<path class="st1" d="M803.8,814.5c-168.8,0-304.7-135.9-304.7-304.7S635,205.2,803.8,205.2s304.7,135.9,304.7,304.7
						S972.5,814.5,803.8,814.5z M803.8,298.9c-117.2,0-210.9,93.8-210.9,210.9s93.8,210.9,210.9,210.9s210.9-93.8,210.9-210.9
						S921,298.9,803.8,298.9z"/>
				</g>
				<path class="st1" d="M360.3,1079v183.9c0,21.1-85.2,21.1-85.2,0V1079c0-168.3,206.7-298.3,468.8-298.3s468.8,130,468.8,298.3
					v183.9c0,21.1-85.2,21.1-85.2,0V1079c0-115.1-174.7-213.1-383.5-213.1S360.3,964,360.3,1079z"/>
			</g>
		</g>
	</g>
</g>
</svg>
